<mxfile host="65bd71144e">
    <diagram id="CRJbZ6ZD_cgHNQNZYByA" name="Page-1">
        <mxGraphModel dx="2905" dy="1425" grid="0" gridSize="10" guides="1" tooltips="1" connect="1" arrows="1" fold="1" page="1" pageScale="1" pageWidth="850" pageHeight="1100" background="#424242" math="0" shadow="1">
            <root>
                <mxCell id="0"/>
                <mxCell id="1" parent="0"/>
                <mxCell id="2" value="&lt;div style=&quot;&quot;&gt;&lt;br&gt;&lt;/div&gt;" style="rounded=1;whiteSpace=wrap;html=1;align=left;fillColor=#bac8d3;strokeColor=#23445d;" parent="1" vertex="1">
                    <mxGeometry x="16.5" y="60" width="660" height="130" as="geometry"/>
                </mxCell>
                <mxCell id="3" value="&lt;b style=&quot;text-align: left; background-color: initial;&quot;&gt;navigation/accueil&lt;/b&gt;" style="rounded=1;whiteSpace=wrap;html=1;" parent="1" vertex="1">
                    <mxGeometry x="27" y="67" width="110" height="25" as="geometry"/>
                </mxCell>
                <mxCell id="4" value="Accés Login" style="rounded=1;whiteSpace=wrap;html=1;fillColor=#6a00ff;fontColor=#ffffff;strokeColor=#3700CC;" parent="1" vertex="1">
                    <mxGeometry x="27" y="140" width="113" height="40" as="geometry"/>
                </mxCell>
                <mxCell id="5" value="Accés Register" style="rounded=1;whiteSpace=wrap;html=1;fillColor=#6a00ff;fontColor=#ffffff;strokeColor=#3700CC;" parent="1" vertex="1">
                    <mxGeometry x="160" y="140" width="113" height="40" as="geometry"/>
                </mxCell>
                <mxCell id="6" value="Accés Profils" style="rounded=1;whiteSpace=wrap;html=1;fillColor=#60a917;fontColor=#ffffff;strokeColor=#2D7600;" parent="1" vertex="1">
                    <mxGeometry x="290" y="140" width="113" height="40" as="geometry"/>
                </mxCell>
                <mxCell id="7" value="Accés Configurations&lt;br&gt;pré-determinées" style="rounded=1;whiteSpace=wrap;html=1;fillColor=#6a00ff;fontColor=#ffffff;strokeColor=#3700CC;" parent="1" vertex="1">
                    <mxGeometry x="550" y="135" width="113" height="50" as="geometry"/>
                </mxCell>
                <mxCell id="8" value="Accés Configurateur" style="rounded=1;whiteSpace=wrap;html=1;fillColor=#6a00ff;fontColor=#ffffff;strokeColor=#3700CC;" parent="1" vertex="1">
                    <mxGeometry x="420" y="140" width="113" height="40" as="geometry"/>
                </mxCell>
                <mxCell id="9" value="" style="rounded=1;whiteSpace=wrap;html=1;fillColor=#d0cee2;strokeColor=#56517e;" parent="1" vertex="1">
                    <mxGeometry x="-210" y="380" width="290" height="150" as="geometry"/>
                </mxCell>
                <mxCell id="10" value="&lt;b style=&quot;text-align: left; background-color: initial;&quot;&gt;Login Modal&lt;/b&gt;" style="rounded=1;whiteSpace=wrap;html=1;" parent="1" vertex="1">
                    <mxGeometry x="-200" y="390" width="80" height="25" as="geometry"/>
                </mxCell>
                <mxCell id="11" value="Le User fournit ses&lt;br&gt;informations de&lt;br&gt;connexion" style="rounded=1;whiteSpace=wrap;html=1;fillColor=#6a00ff;fontColor=#ffffff;strokeColor=#3700CC;" parent="1" vertex="1">
                    <mxGeometry x="-150" y="430" width="180" height="60" as="geometry"/>
                </mxCell>
                <mxCell id="13" value="" style="ellipse;whiteSpace=wrap;html=1;aspect=fixed;" parent="1" vertex="1">
                    <mxGeometry x="-75" y="370" width="20" height="20" as="geometry"/>
                </mxCell>
                <mxCell id="14" value="" style="ellipse;whiteSpace=wrap;html=1;aspect=fixed;" parent="1" vertex="1">
                    <mxGeometry x="336.5" y="47" width="20" height="20" as="geometry"/>
                </mxCell>
                <mxCell id="15" value="Infos Incorrect" style="endArrow=classic;html=1;edgeStyle=orthogonalEdgeStyle;exitX=0.75;exitY=1;exitDx=0;exitDy=0;entryX=1;entryY=0;entryDx=0;entryDy=0;strokeWidth=4;" parent="1" source="11" target="13" edge="1">
                    <mxGeometry width="50" height="50" relative="1" as="geometry">
                        <mxPoint y="510" as="sourcePoint"/>
                        <mxPoint x="50" y="460" as="targetPoint"/>
                        <Array as="points">
                            <mxPoint x="-15" y="510"/>
                            <mxPoint x="130" y="510"/>
                            <mxPoint x="130" y="360"/>
                            <mxPoint x="-58" y="360"/>
                        </Array>
                    </mxGeometry>
                </mxCell>
                <mxCell id="17" value="" style="endArrow=classic;html=1;strokeWidth=4;exitX=0.5;exitY=1;exitDx=0;exitDy=0;" parent="1" source="4" edge="1">
                    <mxGeometry width="50" height="50" relative="1" as="geometry">
                        <mxPoint y="400" as="sourcePoint"/>
                        <mxPoint x="-60" y="370" as="targetPoint"/>
                    </mxGeometry>
                </mxCell>
                <mxCell id="19" value="" style="endArrow=classic;html=1;strokeWidth=4;entryX=0.5;entryY=0;entryDx=0;entryDy=0;exitX=0.25;exitY=1;exitDx=0;exitDy=0;" parent="1" source="11" target="14" edge="1">
                    <mxGeometry width="50" height="50" relative="1" as="geometry">
                        <mxPoint x="140" y="420" as="sourcePoint"/>
                        <mxPoint x="190" y="370" as="targetPoint"/>
                        <Array as="points">
                            <mxPoint x="-105" y="510"/>
                            <mxPoint x="-190" y="510"/>
                            <mxPoint x="-290" y="510"/>
                            <mxPoint x="-290" y="20"/>
                            <mxPoint x="20" y="20"/>
                            <mxPoint x="339" y="20"/>
                        </Array>
                    </mxGeometry>
                </mxCell>
                <mxCell id="21" value="Infos Corrects" style="edgeLabel;html=1;align=center;verticalAlign=middle;resizable=0;points=[];" parent="19" vertex="1" connectable="0">
                    <mxGeometry x="-0.4358" relative="1" as="geometry">
                        <mxPoint as="offset"/>
                    </mxGeometry>
                </mxCell>
                <mxCell id="22" value="" style="rounded=1;whiteSpace=wrap;html=1;fillColor=#d0cee2;strokeColor=#56517e;" parent="1" vertex="1">
                    <mxGeometry x="190" y="380" width="290" height="150" as="geometry"/>
                </mxCell>
                <mxCell id="23" value="&lt;b style=&quot;text-align: left; background-color: initial;&quot;&gt;Register Modal&lt;/b&gt;" style="rounded=1;whiteSpace=wrap;html=1;" parent="1" vertex="1">
                    <mxGeometry x="200" y="390" width="100" height="25" as="geometry"/>
                </mxCell>
                <mxCell id="24" value="Le Visiteur fournit ses&lt;br&gt;informations" style="rounded=1;whiteSpace=wrap;html=1;fillColor=#6a00ff;fontColor=#ffffff;strokeColor=#3700CC;" parent="1" vertex="1">
                    <mxGeometry x="250" y="430" width="180" height="60" as="geometry"/>
                </mxCell>
                <mxCell id="25" value="" style="ellipse;whiteSpace=wrap;html=1;aspect=fixed;" parent="1" vertex="1">
                    <mxGeometry x="325" y="370" width="20" height="20" as="geometry"/>
                </mxCell>
                <mxCell id="26" value="" style="endArrow=classic;html=1;strokeWidth=4;exitX=0.5;exitY=1;exitDx=0;exitDy=0;entryX=0.5;entryY=0;entryDx=0;entryDy=0;" parent="1" source="5" target="25" edge="1">
                    <mxGeometry width="50" height="50" relative="1" as="geometry">
                        <mxPoint x="93.5" y="190" as="sourcePoint"/>
                        <mxPoint x="-50" y="380" as="targetPoint"/>
                    </mxGeometry>
                </mxCell>
                <mxCell id="27" value="Infos Incorrect" style="endArrow=classic;html=1;edgeStyle=orthogonalEdgeStyle;exitX=0.75;exitY=1;exitDx=0;exitDy=0;entryX=1;entryY=0;entryDx=0;entryDy=0;strokeWidth=4;" parent="1" edge="1">
                    <mxGeometry width="50" height="50" relative="1" as="geometry">
                        <mxPoint x="384.93" y="491" as="sourcePoint"/>
                        <mxPoint x="342.0010678118653" y="373.9289321881347" as="targetPoint"/>
                        <Array as="points">
                            <mxPoint x="384.93" y="511"/>
                            <mxPoint x="529.9300000000001" y="511"/>
                            <mxPoint x="529.9300000000001" y="361"/>
                            <mxPoint x="341.93" y="361"/>
                        </Array>
                    </mxGeometry>
                </mxCell>
                <mxCell id="29" value="" style="endArrow=classic;html=1;strokeWidth=4;exitX=0.25;exitY=1;exitDx=0;exitDy=0;" parent="1" source="24" edge="1">
                    <mxGeometry width="50" height="50" relative="1" as="geometry">
                        <mxPoint x="226.5" y="190" as="sourcePoint"/>
                        <mxPoint x="-292" y="481" as="targetPoint"/>
                        <Array as="points">
                            <mxPoint x="295" y="552"/>
                            <mxPoint x="-292" y="552"/>
                        </Array>
                    </mxGeometry>
                </mxCell>
                <mxCell id="31" value="" style="rounded=1;whiteSpace=wrap;html=1;fillColor=#D0CEE2;" parent="1" vertex="1">
                    <mxGeometry x="-17.5" y="664" width="468" height="362" as="geometry"/>
                </mxCell>
                <mxCell id="32" value="&lt;b style=&quot;text-align: left; background-color: initial;&quot;&gt;Profil&lt;/b&gt;" style="rounded=1;whiteSpace=wrap;html=1;" parent="1" vertex="1">
                    <mxGeometry x="14" y="675" width="54" height="25" as="geometry"/>
                </mxCell>
                <mxCell id="33" value="" style="ellipse;whiteSpace=wrap;html=1;aspect=fixed;" parent="1" vertex="1">
                    <mxGeometry x="206.5" y="652" width="20" height="20" as="geometry"/>
                </mxCell>
                <mxCell id="34" value="" style="endArrow=classic;html=1;strokeWidth=4;exitX=0.5;exitY=1;exitDx=0;exitDy=0;entryX=0.5;entryY=0;entryDx=0;entryDy=0;" parent="1" target="33" edge="1">
                    <mxGeometry width="50" height="50" relative="1" as="geometry">
                        <mxPoint x="345" y="180" as="sourcePoint"/>
                        <mxPoint x="463.5" y="370" as="targetPoint"/>
                        <Array as="points">
                            <mxPoint x="348" y="326"/>
                            <mxPoint x="583" y="326"/>
                            <mxPoint x="583" y="604"/>
                            <mxPoint x="220" y="601"/>
                        </Array>
                    </mxGeometry>
                </mxCell>
                <mxCell id="35" value="modifier Email" style="rounded=1;whiteSpace=wrap;html=1;fillColor=#60a917;fontColor=#ffffff;strokeColor=#2D7600;" parent="1" vertex="1">
                    <mxGeometry y="730" width="113" height="40" as="geometry"/>
                </mxCell>
                <mxCell id="36" value="modifier Password" style="rounded=1;whiteSpace=wrap;html=1;fillColor=#60a917;fontColor=#ffffff;strokeColor=#2D7600;" parent="1" vertex="1">
                    <mxGeometry x="-0.5" y="800" width="113" height="40" as="geometry"/>
                </mxCell>
                <mxCell id="37" value="Acceder à ses&lt;br&gt;Configurations" style="rounded=1;whiteSpace=wrap;html=1;fillColor=#60a917;fontColor=#ffffff;strokeColor=#2D7600;" parent="1" vertex="1">
                    <mxGeometry x="-0.5" y="943" width="113" height="40" as="geometry"/>
                </mxCell>
                <mxCell id="38" value="modifier son&amp;nbsp;&lt;br&gt;adresse" style="rounded=1;whiteSpace=wrap;html=1;fillColor=#60a917;fontColor=#ffffff;strokeColor=#2D7600;" parent="1" vertex="1">
                    <mxGeometry x="-0.5" y="871" width="113" height="40" as="geometry"/>
                </mxCell>
                <mxCell id="39" value="Supprimer un User" style="rounded=1;whiteSpace=wrap;html=1;fillColor=#a20025;fontColor=#ffffff;strokeColor=#6F0000;" parent="1" vertex="1">
                    <mxGeometry x="317" y="715" width="113" height="40" as="geometry"/>
                </mxCell>
                <mxCell id="40" value="Ajouter un composant" style="rounded=1;whiteSpace=wrap;html=1;fillColor=#a20025;fontColor=#ffffff;strokeColor=#6F0000;" parent="1" vertex="1">
                    <mxGeometry x="317" y="776" width="113" height="40" as="geometry"/>
                </mxCell>
                <mxCell id="41" value="Ajouter un type" style="rounded=1;whiteSpace=wrap;html=1;fillColor=#a20025;fontColor=#ffffff;strokeColor=#6F0000;" parent="1" vertex="1">
                    <mxGeometry x="315" y="903" width="113" height="40" as="geometry"/>
                </mxCell>
                <mxCell id="42" value="Modifier un type" style="rounded=1;whiteSpace=wrap;html=1;fillColor=#a20025;fontColor=#ffffff;strokeColor=#6F0000;" parent="1" vertex="1">
                    <mxGeometry x="316" y="965" width="113" height="40" as="geometry"/>
                </mxCell>
                <mxCell id="43" value="Modifier un composant" style="rounded=1;whiteSpace=wrap;html=1;fillColor=#a20025;fontColor=#ffffff;strokeColor=#6F0000;" parent="1" vertex="1">
                    <mxGeometry x="317" y="838" width="113" height="40" as="geometry"/>
                </mxCell>
                <mxCell id="45" value="" style="rounded=1;whiteSpace=wrap;html=1;fillColor=#D0CEE2;" parent="1" vertex="1">
                    <mxGeometry x="697" y="438" width="270" height="295" as="geometry"/>
                </mxCell>
                <mxCell id="46" value="&lt;b style=&quot;text-align: left; background-color: initial;&quot;&gt;Configurateur&lt;/b&gt;" style="rounded=1;whiteSpace=wrap;html=1;" parent="1" vertex="1">
                    <mxGeometry x="723" y="455" width="87" height="25" as="geometry"/>
                </mxCell>
                <mxCell id="47" value="" style="ellipse;whiteSpace=wrap;html=1;aspect=fixed;" parent="1" vertex="1">
                    <mxGeometry x="840" y="426" width="20" height="20" as="geometry"/>
                </mxCell>
                <mxCell id="48" value="" style="endArrow=classic;html=1;strokeWidth=4;exitX=0.5;exitY=1;exitDx=0;exitDy=0;entryX=0;entryY=0;entryDx=0;entryDy=0;" parent="1" source="8" target="47" edge="1">
                    <mxGeometry width="50" height="50" relative="1" as="geometry">
                        <mxPoint x="226.5" y="190" as="sourcePoint"/>
                        <mxPoint x="345" y="380" as="targetPoint"/>
                        <Array as="points">
                            <mxPoint x="477" y="259"/>
                            <mxPoint x="843" y="259"/>
                        </Array>
                    </mxGeometry>
                </mxCell>
                <mxCell id="49" value="Liste des types de composants" style="rounded=1;whiteSpace=wrap;html=1;fillColor=#6a00ff;fontColor=#ffffff;strokeColor=#3700CC;" parent="1" vertex="1">
                    <mxGeometry x="709" y="624" width="113" height="40" as="geometry"/>
                </mxCell>
                <mxCell id="50" value="resumé de la configuration avec prix total" style="rounded=1;whiteSpace=wrap;html=1;fillColor=#6a00ff;fontColor=#ffffff;strokeColor=#3700CC;" parent="1" vertex="1">
                    <mxGeometry x="832" y="620" width="127" height="48" as="geometry"/>
                </mxCell>
                <mxCell id="52" value="sauvegarder la configuration" style="rounded=1;whiteSpace=wrap;html=1;fillColor=#60a917;fontColor=#ffffff;strokeColor=#2D7600;" parent="1" vertex="1">
                    <mxGeometry x="703" y="541" width="113" height="40" as="geometry"/>
                </mxCell>
                <mxCell id="54" value="" style="rounded=1;whiteSpace=wrap;html=1;fillColor=#D0CEE2;" parent="1" vertex="1">
                    <mxGeometry x="30" y="1098.5" width="350" height="230" as="geometry"/>
                </mxCell>
                <mxCell id="55" value="" style="ellipse;whiteSpace=wrap;html=1;aspect=fixed;" parent="1" vertex="1">
                    <mxGeometry x="235" y="1085" width="20" height="20" as="geometry"/>
                </mxCell>
                <mxCell id="56" value="&lt;b style=&quot;text-align: left; background-color: initial;&quot;&gt;Configs sauvegardées&lt;/b&gt;" style="rounded=1;whiteSpace=wrap;html=1;" parent="1" vertex="1">
                    <mxGeometry x="52.5" y="1115.5" width="86" height="35" as="geometry"/>
                </mxCell>
                <mxCell id="58" value="" style="endArrow=classic;html=1;strokeWidth=4;exitX=0.5;exitY=1;exitDx=0;exitDy=0;entryX=0;entryY=0;entryDx=0;entryDy=0;" parent="1" target="55" edge="1">
                    <mxGeometry width="50" height="50" relative="1" as="geometry">
                        <mxPoint x="49" y="983" as="sourcePoint"/>
                        <mxPoint x="167.5" y="1173" as="targetPoint"/>
                    </mxGeometry>
                </mxCell>
                <mxCell id="59" value="listes Configurations" style="rounded=1;whiteSpace=wrap;html=1;fillColor=#60a917;fontColor=#ffffff;strokeColor=#2D7600;" parent="1" vertex="1">
                    <mxGeometry x="50" y="1182.5" width="126" height="40" as="geometry"/>
                </mxCell>
                <mxCell id="60" value="visualiser/modifier une configuration" style="rounded=1;whiteSpace=wrap;html=1;fillColor=#60a917;fontColor=#ffffff;strokeColor=#2D7600;" parent="1" vertex="1">
                    <mxGeometry x="230" y="1182.5" width="126" height="40" as="geometry"/>
                </mxCell>
                <mxCell id="61" value="supprimer une configuration" style="rounded=1;whiteSpace=wrap;html=1;fillColor=#60a917;fontColor=#ffffff;strokeColor=#2D7600;" parent="1" vertex="1">
                    <mxGeometry x="48" y="1254.5" width="126" height="40" as="geometry"/>
                </mxCell>
                <mxCell id="62" value="" style="endArrow=classic;html=1;strokeWidth=4;entryX=-0.171;entryY=-0.307;entryDx=0;entryDy=0;entryPerimeter=0;exitX=0.5;exitY=1;exitDx=0;exitDy=0;" parent="1" source="60" target="47" edge="1">
                    <mxGeometry width="50" height="50" relative="1" as="geometry">
                        <mxPoint x="101.07" y="1294.5" as="sourcePoint"/>
                        <mxPoint x="289.99893218813423" y="1399.4289321881345" as="targetPoint"/>
                        <Array as="points">
                            <mxPoint x="293" y="1375"/>
                            <mxPoint x="641" y="1375"/>
                            <mxPoint x="645" y="296"/>
                            <mxPoint x="806" y="296"/>
                        </Array>
                    </mxGeometry>
                </mxCell>
                <mxCell id="63" value="" style="rounded=1;whiteSpace=wrap;html=1;fillColor=#D0CEE2;" parent="1" vertex="1">
                    <mxGeometry x="703" y="812.5" width="270" height="247.5" as="geometry"/>
                </mxCell>
                <mxCell id="64" value="&lt;b style=&quot;text-align: left; background-color: initial;&quot;&gt;choix composant Modal&lt;/b&gt;" style="rounded=1;whiteSpace=wrap;html=1;" parent="1" vertex="1">
                    <mxGeometry x="718" y="831" width="118" height="39" as="geometry"/>
                </mxCell>
                <mxCell id="65" value="" style="ellipse;whiteSpace=wrap;html=1;aspect=fixed;" parent="1" vertex="1">
                    <mxGeometry x="828" y="804" width="20" height="20" as="geometry"/>
                </mxCell>
                <mxCell id="66" value="" style="endArrow=classic;html=1;strokeWidth=4;exitX=0.5;exitY=1;exitDx=0;exitDy=0;entryX=0;entryY=0;entryDx=0;entryDy=0;" parent="1" target="65" edge="1">
                    <mxGeometry width="50" height="50" relative="1" as="geometry">
                        <mxPoint x="762" y="664" as="sourcePoint"/>
                        <mxPoint x="880.5" y="854" as="targetPoint"/>
                    </mxGeometry>
                </mxCell>
                <mxCell id="67" value="Supprimer la configuration" style="rounded=1;whiteSpace=wrap;html=1;fillColor=#60a917;fontColor=#ffffff;strokeColor=#2D7600;" parent="1" vertex="1">
                    <mxGeometry x="832" y="541" width="113" height="40" as="geometry"/>
                </mxCell>
                <mxCell id="69" value="choix composant" style="rounded=1;whiteSpace=wrap;html=1;fillColor=#6a00ff;fontColor=#ffffff;strokeColor=#3700CC;" parent="1" vertex="1">
                    <mxGeometry x="723" y="973" width="113" height="40" as="geometry"/>
                </mxCell>
                <mxCell id="70" value="recherche composant" style="rounded=1;whiteSpace=wrap;html=1;fillColor=#6a00ff;fontColor=#ffffff;strokeColor=#3700CC;" parent="1" vertex="1">
                    <mxGeometry x="723" y="903" width="113" height="40" as="geometry"/>
                </mxCell>
                <mxCell id="71" value="" style="rounded=1;whiteSpace=wrap;html=1;fillColor=#D0CEE2;" parent="1" vertex="1">
                    <mxGeometry x="1049" y="297" width="270" height="234" as="geometry"/>
                </mxCell>
                <mxCell id="72" value="&lt;b style=&quot;text-align: left; background-color: initial;&quot;&gt;pré-fabriqué&lt;/b&gt;" style="rounded=1;whiteSpace=wrap;html=1;" parent="1" vertex="1">
                    <mxGeometry x="1064" y="310" width="87" height="25" as="geometry"/>
                </mxCell>
                <mxCell id="73" value="" style="ellipse;whiteSpace=wrap;html=1;aspect=fixed;" parent="1" vertex="1">
                    <mxGeometry x="1174" y="286" width="20" height="20" as="geometry"/>
                </mxCell>
                <mxCell id="74" value="" style="endArrow=classic;html=1;strokeWidth=4;exitX=0.5;exitY=1;exitDx=0;exitDy=0;entryX=0;entryY=0;entryDx=0;entryDy=0;" parent="1" target="73" edge="1">
                    <mxGeometry width="50" height="50" relative="1" as="geometry">
                        <mxPoint x="604.5" y="185" as="sourcePoint"/>
                        <mxPoint x="723" y="375" as="targetPoint"/>
                        <Array as="points">
                            <mxPoint x="605" y="224"/>
                            <mxPoint x="1174" y="231"/>
                        </Array>
                    </mxGeometry>
                </mxCell>
                <mxCell id="75" value="choix parmis 3 configurations" style="rounded=1;whiteSpace=wrap;html=1;fillColor=#6a00ff;fontColor=#ffffff;strokeColor=#3700CC;" parent="1" vertex="1">
                    <mxGeometry x="1067" y="375" width="113" height="40" as="geometry"/>
                </mxCell>
                <mxCell id="76" value="sauvegarder la configuration" style="rounded=1;whiteSpace=wrap;html=1;fillColor=#60a917;fontColor=#ffffff;strokeColor=#2D7600;" parent="1" vertex="1">
                    <mxGeometry x="1070" y="455" width="113" height="40" as="geometry"/>
                </mxCell>
            </root>
        </mxGraphModel>
    </diagram>
</mxfile>